<svg xmlns="http://www.w3.org/2000/svg" width="25" height="25" viewBox="0 0 25 25" fill="none">    <path d="M23.1738 11.167C21.2207 7.24365 17.1802 4.54346 12.5 4.54346C7.81982 4.54346 3.7793 7.24365 1.82617 11.167C1.41113 12.002 1.41113 13.0005 1.82617 13.833C3.7793 17.7563 7.81982 20.4565 12.5 20.4565C17.1802 20.4565 21.2207 17.7563 23.1738 13.833C23.5913 13.0005 23.5913 11.9995 23.1738 11.167ZM19.939 14.4946C18.1909 16.6724 15.5103 18.0688 12.5 18.0688C9.48975 18.0688 6.80908 16.6724 5.06103 14.4946C4.12842 13.3301 4.12842 11.6675 5.06103 10.5054C6.80908 8.32764 9.4873 6.93115 12.5 6.93115C15.5127 6.93115 18.1909 8.32764 19.939 10.5054C20.8716 11.6675 20.8716 13.3325 19.939 14.4946Z" fill="#2D2D2D"/>    <path d="M12.5 9.31641C10.7422 9.31641 9.31641 10.7422 9.31641 12.5C9.31641 14.2578 10.7422 15.6836 12.5 15.6836C14.2578 15.6836 15.6836 14.2578 15.6836 12.5C15.6836 10.7422 14.2578 9.31641 12.5 9.31641ZM12.5 14.0918C11.6211 14.0918 10.9082 13.3789 10.9082 12.5C10.9082 11.6211 11.6211 10.9082 12.5 10.9082C13.3789 10.9082 14.0918 11.6211 14.0918 12.5C14.0918 13.3789 13.3789 14.0918 12.5 14.0918Z" fill="#2D2D2D"/>    <mask id="path-3-outside-1_5181_2225" maskUnits="userSpaceOnUse" x="3.26099" y="2.16688" width="16.9818" height="20.8121" fill="black">        <rect fill="white" x="3.26099" y="2.16688" width="16.9818" height="20.8121"/>        <path d="M3.26099 4.56323L5.0016 3.26087L18.6027 21.4388L16.8621 22.7412L3.26099 4.56323Z"/>    </mask>    <path d="M3.26099 4.56323L5.0016 3.26087L18.6027 21.4388L16.8621 22.7412L3.26099 4.56323Z" fill="#2D2D2D"/>    <path d="M4.20092 3.85996L17.8021 22.0379L19.4034 20.8397L5.80228 2.66178L4.20092 3.85996Z" fill="white" mask="url(#path-3-outside-1_5181_2225)"/></svg>