<svg xmlns="http://www.w3.org/2000/svg" width="26" height="26" viewBox="0 0 26 26" fill="none">
    <path d="M23.6738 11.667C21.7207 7.74365 17.6802 5.04346 13 5.04346C8.31982 5.04346 4.2793 7.74365 2.32617 11.667C1.91113 12.502 1.91113 13.5005 2.32617 14.333C4.2793 18.2563 8.31982 20.9565 13 20.9565C17.6802 20.9565 21.7207 18.2563 23.6738 14.333C24.0913 13.5005 24.0913 12.4995 23.6738 11.667ZM20.439 14.9946C18.6909 17.1724 16.0103 18.5688 13 18.5688C9.98975 18.5688 7.30908 17.1724 5.56103 14.9946C4.62842 13.8301 4.62842 12.1675 5.56103 11.0054C7.30908 8.82764 9.9873 7.43115 13 7.43115C16.0127 7.43115 18.6909 8.82764 20.439 11.0054C21.3716 12.1675 21.3716 13.8325 20.439 14.9946Z" fill="#2D2D2D"/>
    <path d="M13 9.81641C11.2422 9.81641 9.81641 11.2422 9.81641 13C9.81641 14.7578 11.2422 16.1836 13 16.1836C14.7578 16.1836 16.1836 14.7578 16.1836 13C16.1836 11.2422 14.7578 9.81641 13 9.81641ZM13 14.5918C12.1211 14.5918 11.4082 13.8789 11.4082 13C11.4082 12.1211 12.1211 11.4082 13 11.4082C13.8789 11.4082 14.5918 12.1211 14.5918 13C14.5918 13.8789 13.8789 14.5918 13 14.5918Z" fill="#2D2D2D"/>
</svg>