<svg width="21" height="21" viewBox="0 0 21 21" fill="none" xmlns="http://www.w3.org/2000/svg">
<g clip-path="url(#clip0_1590_642)">
<path d="M17.9276 3.07453C15.944 1.09217 13.3077 0 10.502 0C7.6974 0 5.06089 1.09217 3.0782 3.07474C1.0947 5.05798 0.00241106 7.69499 0.00241106 10.5C0.00190706 13.3055 1.09344 15.942 3.07656 17.9263C5.05904 19.9078 7.6958 21 10.5002 21C13.3058 21 15.9435 19.907 17.9276 17.9242C22.0207 13.8308 22.0212 7.16965 17.9276 3.07453ZM15.442 14.2678C15.2005 14.6861 14.7472 14.8294 14.329 14.5881L10.7196 12.4005C10.598 12.3304 10.3985 12.2316 10.3258 12.1223C10.0634 11.9718 9.66002 11.6996 9.66002 11.3751V5.25008C9.66002 4.76704 10.052 4.37501 10.5349 4.37501C11.018 4.37501 11.41 4.767 11.41 5.25008V10.9743L15.0395 13.0734C15.4587 13.3149 15.6835 13.8495 15.442 14.2678Z" fill="#1296DB"/>
</g>
<defs>
<clipPath id="clip0_1590_642">
<rect width="21" height="21" fill="white"/>
</clipPath>
</defs>
</svg>
