<svg width="21" height="21" viewBox="0 0 21 21" fill="none" xmlns="http://www.w3.org/2000/svg">
<path d="M17.941 9.74864H14.8216C14.6514 9.74864 14.4885 9.8174 14.369 9.93881C14.2495 10.0599 14.1826 10.2231 14.1826 10.3932V10.5941C14.1826 10.9489 14.4704 11.2369 14.8234 11.2369H17.941C18.2941 11.2369 18.5801 10.9489 18.5801 10.5941V10.3932C18.5801 10.2231 18.5131 10.0599 18.3937 9.93881C18.2741 9.8174 18.1112 9.74864 17.941 9.74864ZM10.7082 4.23218C9.73777 5.00342 7.70828 6.08428 6.24902 7.1253H6.24726C6.23089 7.13617 6.21465 7.19407 6.1965 7.20311C6.02456 7.30087 5.9467 7.56706 5.00883 7.56706H3.18036C2.7096 7.56706 2.41991 7.78789 2.41991 8.28401V12.6888C2.41991 13.1849 2.6861 13.4293 3.18034 13.4293H5.01609C5.94854 13.4312 6.02456 13.6973 6.19652 13.7933C6.21287 13.8023 6.22913 13.8602 6.24539 13.871H6.24724C7.66302 14.9121 9.70527 16.0762 10.7082 16.8167C11.0106 17.0394 12.0136 17.4305 12.0136 16.0545V4.93827C12.0136 3.56051 11.0015 4.00038 10.7082 4.23218ZM13.5869 7.27011C13.7534 7.56157 14.0811 7.63582 14.3201 7.43302L16.8819 5.2732C17.1227 5.07218 17.1806 4.67208 17.0159 4.37886L16.9218 4.21407C16.757 3.92262 16.4275 3.85012 16.1884 4.05114L13.6267 6.21098C13.3877 6.41378 13.328 6.81211 13.4927 7.10535L13.5869 7.27013L13.5869 7.27011ZM14.3184 13.5598C14.0793 13.3587 13.7516 13.433 13.5869 13.7227L13.4928 13.8873C13.328 14.1789 13.3878 14.579 13.6267 14.7818L16.1885 16.9435C16.4275 17.1444 16.7552 17.072 16.9199 16.7805L17.014 16.6158C17.1788 16.3243 17.1191 15.9241 16.8801 15.7214L14.3183 13.5597L14.3184 13.5598Z" fill="#F7C40D"/>
</svg>
