<svg xmlns="http://www.w3.org/2000/svg" width="81" height="81" viewBox="0 0 81 81" fill="none">
  <path d="M64.1273 35.2778L42.3091 17C41.8727 17 41.4364 17 41 17C40.5636 17 40.1273 17 39.6909 17.4352L17.8727 35.713C17.4364 35.713 17 36.5833 17 37.0185V61.8241C17 63.1296 17.8727 64 19.1818 64H62.8182C64.1273 64 65 63.1296 65 61.8241V37.0185C65 36.5833 64.5636 35.713 64.1273 35.2778ZM61.0727 60.0833H47.1091V50.0741C47.1091 46.5926 44.4909 43.9815 41 43.9815C37.5091 43.9815 34.8909 46.5926 34.8909 50.0741V60.0833H20.9273V37.8889L41 21.3519L61.0727 37.8889V60.0833Z" fill="#1A8CF4"/>
</svg>
