<svg xmlns="http://www.w3.org/2000/svg" width="81" height="81" viewBox="0 0 81 81" fill="none">
  <path d="M52 17C54.21 17 56 18.8383 56 21.0953V24.1489H60.99C62.0519 24.1487 63.0705 24.5786 63.8223 25.3445C64.5741 26.1104 64.9976 27.1496 65 28.234V60.9149C65 63.1719 63.206 65 60.99 65H21.01C19.9481 65.0003 18.9295 64.5703 18.1777 63.8044C17.4259 63.0386 17.0024 61.9994 17 60.9149V28.234C17 25.977 18.794 24.1489 21.01 24.1489H26V21.0953C25.9989 20.5581 26.1016 20.0259 26.3021 19.5292C26.5027 19.0325 26.7971 18.5811 27.1686 18.2007C27.5401 17.8203 27.9814 17.5185 28.4673 17.3125C28.9531 17.1065 29.4739 17.0003 30 17H52ZM59.991 28.234H22.01C21.8784 28.2327 21.7479 28.2579 21.6259 28.3082C21.5038 28.3584 21.3927 28.4328 21.2989 28.527C21.2051 28.6212 21.1304 28.7334 21.0791 28.8572C21.0278 28.9809 21.0009 29.1138 21 29.2482V59.9008C21 60.4523 21.452 60.9149 22.009 60.9149H59.99C60.1216 60.9162 60.2521 60.8911 60.3741 60.8408C60.4962 60.7905 60.6073 60.7161 60.7011 60.6219C60.7949 60.5277 60.8696 60.4155 60.9209 60.2918C60.9722 60.168 60.9991 60.0351 61 59.9008V29.2482C61 28.6967 60.548 28.234 59.991 28.234ZM40 32.3191C46.075 32.3191 51 37.3489 51 43.5532C51.0035 45.8491 50.315 48.0905 49.028 49.9729L52.43 53.4453C53.187 54.2194 53.193 55.4674 52.43 56.2477C52.2502 56.4323 52.0364 56.5788 51.8009 56.6788C51.5655 56.7788 51.313 56.8303 51.058 56.8303C50.803 56.8303 50.5505 56.7788 50.3151 56.6788C50.0796 56.5788 49.8658 56.4323 49.686 56.2477L46.286 52.7733C44.4428 54.0877 42.2481 54.7908 40 54.7872C33.925 54.7872 29 49.7575 29 43.5532C29 37.3489 33.925 32.3191 40 32.3191ZM40 36.4043C39.0807 36.4043 38.1705 36.5892 37.3212 36.9484C36.4719 37.3077 35.7003 37.8343 35.0503 38.4981C34.4002 39.162 33.8846 39.9501 33.5328 40.8174C33.1811 41.6848 33 42.6144 33 43.5532C33 44.492 33.1811 45.4216 33.5328 46.289C33.8846 47.1563 34.4002 47.9444 35.0503 48.6083C35.7003 49.2721 36.4719 49.7987 37.3212 50.158C38.1705 50.5172 39.0807 50.7021 40 50.7021C41.8565 50.7021 43.637 49.9489 44.9497 48.6083C46.2625 47.2676 47 45.4492 47 43.5532C47 41.6572 46.2625 39.8388 44.9497 38.4981C43.637 37.1574 41.8565 36.4043 40 36.4043ZM50.998 21.0851H31.002C30.8701 21.0843 30.7394 21.1102 30.6174 21.1614C30.4954 21.2126 30.3846 21.2881 30.2913 21.3834C30.1981 21.4787 30.1244 21.5919 30.0744 21.7166C30.0243 21.8412 29.9991 21.9748 30 22.1094V24.1489H52V22.1094C52.0008 21.9748 51.9754 21.8413 51.9254 21.7167C51.8753 21.5921 51.8015 21.4789 51.7084 21.3837C51.6152 21.2884 51.5044 21.213 51.3825 21.1617C51.2605 21.1105 51.1299 21.0844 50.998 21.0851Z" fill="#1A8CF4"/>
</svg>
