<svg xmlns="http://www.w3.org/2000/svg" width="81" height="81" viewBox="0 0 81 81" fill="none">
  <path d="M40.6734 56.1946C29.8396 56.1946 21 47.3893 21 36.5973C21 25.8054 29.8396 17 40.6734 17C51.5073 17 60.3468 25.8054 60.3468 36.5973C60.3468 47.3893 51.5073 56.1946 40.6734 56.1946ZM40.6734 21.2953C32.2112 21.2953 25.312 28.1678 25.312 36.5973C25.312 45.0268 32.2112 51.8993 40.6734 51.8993C49.1357 51.8993 56.0349 45.0268 56.0349 36.5973C56.0349 28.1678 49.1357 21.2953 40.6734 21.2953Z" fill="#949494"/>
  <path d="M35.5529 38.3154C34.3671 38.3154 33.397 37.349 33.397 36.1678V34.0201C33.397 32.8389 34.3671 31.8725 35.5529 31.8725C36.7387 31.8725 37.7089 32.8389 37.7089 34.0201V36.1678C37.7089 37.349 36.7387 38.3154 35.5529 38.3154ZM45.7939 38.3154C44.6081 38.3154 43.6379 37.349 43.6379 36.1678V34.0201C43.6379 32.8389 44.6081 31.8725 45.7939 31.8725C46.9797 31.8725 47.9499 32.8389 47.9499 34.0201V36.1678C47.9499 37.349 46.9797 38.3154 45.7939 38.3154ZM54.5257 65C53.3399 65 52.3697 64.0336 52.3697 62.8523C52.3697 60.1678 51.7229 58.2349 50.3754 57.0537C48.5428 55.3893 45.9556 55.604 45.9556 55.604C44.7698 55.7114 43.7457 54.8524 43.6379 53.6711C43.5301 52.4899 44.3925 51.4698 45.5783 51.3624C45.74 51.3624 50.052 50.9866 53.286 53.8859C55.5498 55.9262 56.6817 58.9866 56.6817 62.906C56.6817 64.0336 55.7654 65 54.5257 65ZM26.8212 65C25.6354 65 24.6652 64.0336 24.6652 62.8523C24.6652 58.8792 25.7971 55.8725 28.0609 53.8322C31.2949 50.8792 35.6068 51.3087 35.7685 51.3087C36.9543 51.4161 37.8167 52.4899 37.7089 53.6711C37.6011 54.8524 36.5231 55.7114 35.3912 55.604C35.3373 55.604 32.7502 55.443 30.9715 57.0537C29.6779 58.2349 28.9772 60.2215 28.9772 62.8523C28.9772 64.0336 28.007 65 26.8212 65Z" fill="#949494"/>
</svg>
