<svg xmlns="http://www.w3.org/2000/svg" width="24" height="24" viewBox="0 0 24 24" fill="none">
  <g clip-path="url(#clip0_4040_1667)">
    <path d="M20.872 13.1149C20.9216 12.733 20.9537 12.3512 20.9537 11.9431C20.9537 11.5379 20.9158 11.156 20.872 10.7712L23.3907 8.80062C23.618 8.62278 23.6793 8.2992 23.5335 8.03683L21.1461 3.90618C21.0032 3.64386 20.6796 3.54764 20.4173 3.64386L17.4439 4.83902C16.823 4.36096 16.1525 3.96743 15.4267 3.66716L14.9719 0.501389C14.9341 0.21281 14.6863 0 14.386 0H9.6082C9.31086 0 9.06013 0.215714 9.02226 0.501389L8.5675 3.66716C7.83874 3.9645 7.1712 4.37262 6.55029 4.83902L3.5769 3.64383C3.29998 3.53598 2.99098 3.64383 2.84813 3.9062L0.460708 8.03686C0.303314 8.29921 0.379107 8.62278 0.603558 8.80062L3.12219 10.7712C3.07263 11.1531 3.04056 11.5466 3.04056 11.9431C3.04056 12.3395 3.07846 12.7301 3.12219 13.1149L0.600653 15.0855C0.373252 15.2633 0.312051 15.5869 0.457804 15.8492L2.84525 19.9799C2.98808 20.2423 3.31167 20.3385 3.57402 20.2423L6.5474 19.0471C7.16831 19.5251 7.83876 19.9187 8.56462 20.2189L9.01936 23.3847C9.05725 23.6704 9.30505 23.8861 9.6053 23.8861H14.3831C14.6804 23.8861 14.9311 23.6704 14.969 23.3847L15.4238 20.2189C16.1525 19.9216 16.8201 19.5135 17.441 19.0471L20.4144 20.2423C20.6913 20.3501 21.0003 20.2423 21.1431 19.9799L23.5306 15.8492C23.6734 15.5869 23.6122 15.2633 23.3878 15.0855L20.872 13.1149ZM11.9986 16.1262C9.69275 16.1262 7.81836 14.2518 7.81836 11.946C7.81836 9.64015 9.69275 7.76575 11.9986 7.76575C14.3044 7.76575 16.1788 9.64015 16.1788 11.946C16.1788 14.2518 14.3044 16.1262 11.9986 16.1262Z" fill="#4B4B4B"/>
  </g>
  <defs>
    <clipPath id="clip0_4040_1667">
      <rect width="24" height="24" fill="white"/>
    </clipPath>
  </defs>
</svg>
