<svg xmlns="http://www.w3.org/2000/svg" width="18" height="18" viewBox="0 0 18 18" fill="none">
    <g clip-path="url(#clip0_5745_2863)">
        <path d="M9 0C13.9706 0 18 4.02943 18 9C18 13.9706 13.9706 18 9 18C4.02943 18 0 13.9706 0 9C0 4.02943 4.02943 0 9 0ZM9 1.71429C4.97614 1.71429 1.71429 4.97614 1.71429 9C1.71429 13.0239 4.97614 16.2857 9 16.2857C13.0239 16.2857 16.2857 13.0239 16.2857 9C16.2857 4.97614 13.0239 1.71429 9 1.71429ZM9.42857 7.28571C9.48485 7.28571 9.54058 7.2968 9.59258 7.31834C9.64458 7.33987 9.69182 7.37144 9.73162 7.41124C9.77141 7.45104 9.80298 7.49828 9.82452 7.55028C9.84606 7.60228 9.85714 7.65801 9.85714 7.71429V13.7143C9.85714 13.7706 9.84606 13.8263 9.82452 13.8783C9.80298 13.9303 9.77141 13.9775 9.73162 14.0173C9.69182 14.0571 9.64458 14.0887 9.59258 14.1102C9.54058 14.1318 9.48485 14.1429 9.42857 14.1429H8.57143C8.51515 14.1429 8.45942 14.1318 8.40742 14.1102C8.35542 14.0887 8.30818 14.0571 8.26838 14.0173C8.22859 13.9775 8.19702 13.9303 8.17548 13.8783C8.15394 13.8263 8.14286 13.7706 8.14286 13.7143V7.71429C8.14286 7.65801 8.15394 7.60228 8.17548 7.55028C8.19702 7.49828 8.22859 7.45104 8.26838 7.41124C8.30818 7.37144 8.35542 7.33987 8.40742 7.31834C8.45942 7.2968 8.51515 7.28571 8.57143 7.28571H9.42857ZM9.42857 3.85714C9.48485 3.85714 9.54058 3.86823 9.59258 3.88977C9.64458 3.9113 9.69182 3.94287 9.73162 3.98267C9.77141 4.02246 9.80298 4.06971 9.82452 4.12171C9.84606 4.1737 9.85714 4.22943 9.85714 4.28571V5.14286C9.85714 5.19914 9.84606 5.25487 9.82452 5.30686C9.80298 5.35886 9.77141 5.40611 9.73162 5.4459C9.69182 5.4857 9.64458 5.51727 9.59258 5.53881C9.54058 5.56034 9.48485 5.57143 9.42857 5.57143H8.57143C8.51515 5.57143 8.45942 5.56034 8.40742 5.53881C8.35542 5.51727 8.30818 5.4857 8.26838 5.4459C8.22859 5.40611 8.19702 5.35886 8.17548 5.30686C8.15394 5.25487 8.14286 5.19914 8.14286 5.14286V4.28571C8.14286 4.22943 8.15394 4.1737 8.17548 4.12171C8.19702 4.06971 8.22859 4.02246 8.26838 3.98267C8.30818 3.94287 8.35542 3.9113 8.40742 3.88977C8.45942 3.86823 8.51515 3.85714 8.57143 3.85714H9.42857Z" fill="#8FC816"/>
    </g>
    <defs>
        <clipPath id="clip0_5745_2863">
            <rect width="18" height="18" fill="white"/>
        </clipPath>
    </defs>
</svg>