<svg xmlns="http://www.w3.org/2000/svg" width="18" height="18" viewBox="0 0 18 18" fill="none">
    <path d="M12.5284 16.4338C12.9566 16.4338 13.3037 16.7812 13.3037 17.2164C13.3037 17.6486 12.9508 17.9989 12.5284 17.9989H9.38364C8.95542 17.9989 8.60828 17.6516 8.60828 17.2164C8.60828 16.7842 8.9612 16.4338 9.38364 16.4338H12.5284ZM14.2201 5.85813L12.1408 3.77884L13.8014 2.11901C14.1066 1.81224 14.602 1.81224 14.908 2.11822L15.8799 3.09096C16.1867 3.39694 16.1867 3.89231 15.8799 4.19752L14.2201 5.85813ZM11.1689 4.75079L13.2481 6.83087L4.72282 15.3546L2.64431 13.2761L11.1689 4.75079ZM1.56514 16.4354V14.4101L3.58887 16.4338L1.56514 16.4354ZM15.4613 0.458391C14.8493 -0.152797 13.8593 -0.152797 13.2481 0.458391C13.2481 0.458391 0.471108 13.2346 0.235554 13.471C0 13.7073 0 14.0861 0 14.0861V17.2164C0 17.6491 0.349809 17.9989 0.782571 17.9989H3.91286C3.91286 17.9989 4.26266 18.0295 4.52796 17.7634C4.79325 17.4981 17.5405 4.75079 17.5405 4.75079C18.1517 4.13961 18.1517 3.14965 17.5405 2.53768L15.4613 0.458391Z" fill="#339EEB"/>
    <path d="M13.3037 17.2162C13.3037 16.781 12.9566 16.4336 12.5283 16.4336H9.38363C8.9612 16.4336 8.60828 16.784 8.60828 17.2162C8.60828 17.6514 8.95541 17.9987 9.38363 17.9987H12.5283C12.9508 17.9987 13.3037 17.6484 13.3037 17.2162Z" fill="#339EEB"/>
</svg>