<svg xmlns="http://www.w3.org/2000/svg" width="18" height="18" viewBox="0 0 18 18" fill="none">
    <g clip-path="url(#clip0_5745_2855)">
        <path d="M9.14235 11.1008C8.86453 11.0889 8.64818 11.0213 8.481 10.892C8.31874 10.7668 8.28186 10.6733 8.23269 10.4784C8.18597 10.2895 8.19581 10.1464 8.2081 9.9833L8.21548 9.87791C8.22777 9.68105 8.30153 9.48817 8.43183 9.31915C8.57197 9.14019 8.73915 8.97713 8.94321 8.82004C9.15464 8.66097 9.37837 8.50785 9.60702 8.36469C9.83812 8.22152 10.0668 8.07039 10.288 7.9133C10.5093 7.75621 10.6863 7.59913 10.8314 7.43011C10.9838 7.25114 11.06 7.05627 11.06 6.8455C11.0895 6.44184 10.9002 6.09584 10.4995 5.82541C10.1061 5.56095 9.57997 5.42772 8.93829 5.42772C8.60147 5.42772 8.29169 5.49334 8.01879 5.62657C7.75081 5.75582 7.52217 5.91489 7.33777 6.09982C7.15338 6.28276 7.00587 6.47763 6.89769 6.68045C6.78706 6.89123 6.73297 7.06622 6.73297 7.21336C6.73297 7.3963 6.65184 7.53152 6.48466 7.62696C6.31502 7.72241 6.12571 7.77212 5.92411 7.77212H5.89214C5.67087 7.76616 5.47419 7.7065 5.28734 7.58918C5.10787 7.47783 5.01444 7.29887 5.00215 7.04235C4.9874 6.81368 5.04886 6.52336 5.17916 6.17737C5.31193 5.83138 5.54303 5.49334 5.87002 5.1732C6.19946 4.84908 6.63709 4.5687 7.16813 4.34202C7.69918 4.11533 8.37774 4 9.18169 4C9.83075 4 10.4011 4.07755 10.8805 4.23265C11.3575 4.38576 11.7509 4.59455 12.0484 4.85106L12.0877 4.88487C12.3778 5.13541 12.5868 5.31637 12.8105 5.76775C13.0957 6.34241 12.9851 6.80374 12.9457 6.931C12.8031 7.38039 12.636 7.68065 12.3876 7.93319C12.1 8.2235 11.7755 8.49394 11.4239 8.73653C11.0797 8.96918 10.4601 9.39869 10.4601 9.39869C10.1331 9.62537 9.98318 9.83814 10.0028 10.0529V10.4387C10.0151 10.6117 9.94384 10.7588 9.78649 10.892C9.63406 11.0193 9.42263 11.0909 9.14235 11.1008ZM9.10301 14C8.7834 14 8.5228 13.9165 8.31136 13.7435C8.09747 13.5705 7.99175 13.3657 7.99175 13.1191C7.99175 12.8626 8.09501 12.6518 8.3089 12.4788C8.5228 12.3058 8.78094 12.2223 9.10056 12.2223C9.42017 12.2223 9.67832 12.3058 9.89221 12.4788C10.1061 12.6518 10.2094 12.8606 10.2094 13.1191C10.2094 13.3657 10.1061 13.5705 9.89221 13.7435C9.68077 13.9145 9.42017 14 9.10301 14Z" fill="#FFC700"/>
        <path d="M9 18C4.03771 18 0 13.9623 0 9C0 4.03771 4.03771 0 9 0C13.9623 0 18 4.03771 18 9C18.0022 13.9623 13.9645 18 9 18ZM9 1.74039C4.9971 1.74039 1.74039 4.9971 1.74039 9C1.74039 13.0029 4.9971 16.2596 9 16.2596C13.0029 16.2596 16.2596 13.0029 16.2596 9C16.2596 4.9971 13.0029 1.74039 9 1.74039Z" fill="#FFC700"/>
    </g>
    <defs>
        <clipPath id="clip0_5745_2855">
            <rect width="18" height="18" fill="white"/>
        </clipPath>
    </defs>
</svg>