<svg xmlns="http://www.w3.org/2000/svg" width="18" height="18" viewBox="0 0 18 18" fill="none">
  <path d="M10.3168 17.8772H2.64767C1.18688 17.8772 0 16.6881 0 15.2295V2.64767C0 1.18689 1.18906 0 2.64767 0H10.3168C11.7775 0 12.9644 1.18906 12.9644 2.64767V3.7476C12.9644 4.2454 12.5623 4.64755 12.0645 4.64755C11.5667 4.64755 11.1645 4.2454 11.1645 3.7476V2.64767C11.1645 2.1803 10.7841 1.79989 10.3168 1.79989H2.64767C2.1803 1.79989 1.79989 2.1803 1.79989 2.64767V15.2295C1.79989 15.6969 2.1803 16.0773 2.64767 16.0773H10.3168C10.7841 16.0773 11.1645 15.6969 11.1645 15.2295V14.2622C11.1645 13.7644 11.5667 13.3622 12.0645 13.3622C12.5623 13.3622 12.9644 13.7644 12.9644 14.2622V15.2295C12.9644 16.6881 11.7754 17.8772 10.3168 17.8772Z" fill="#EC4646"/>
  <path d="M16.5294 9.83854H8.04517C7.54737 9.83854 7.14522 9.43639 7.14522 8.93859C7.14522 8.44079 7.54737 8.03864 8.04517 8.03864H16.5316C17.0294 8.03864 17.4316 8.44079 17.4316 8.93859C17.4316 9.43639 17.0272 9.83854 16.5294 9.83854Z" fill="#EC4646"/>
  <path d="M14.0731 12.8666C13.8426 12.8666 13.6122 12.7797 13.4361 12.6036C13.084 12.2514 13.084 11.6819 13.4361 11.3298L15.8273 8.93859L13.4361 6.54743C13.084 6.19528 13.084 5.62575 13.4361 5.27359C13.7883 4.92144 14.3578 4.92144 14.71 5.27359L17.7359 8.30167C18.088 8.65383 18.088 9.22336 17.7359 9.57551L14.71 12.6014C14.5339 12.7775 14.3035 12.8666 14.0731 12.8666Z" fill="#EC4646"/>
</svg>