<svg width="20" height="18" viewBox="0 0 20 18" fill="none" xmlns="http://www.w3.org/2000/svg">
<path d="M18.8493 7.14181C18.738 6.55361 18.3788 6.17358 17.9343 6.17358C17.9286 6.17358 17.9228 6.17363 17.9197 6.17374H17.8378C16.5522 6.17374 15.5063 5.12782 15.5063 3.8422C15.5063 3.42498 15.7075 2.95724 15.7093 2.95321C15.9397 2.43459 15.7624 1.79863 15.2974 1.47418L15.2692 1.45436L12.9064 0.141743L12.8765 0.128638C12.7226 0.0617333 12.5541 0.0278071 12.3758 0.0278071C12.0103 0.0278071 11.6508 0.174505 11.4144 0.419976C11.1552 0.687487 10.2607 1.45108 9.57329 1.45108C8.87972 1.45108 7.97987 0.672487 7.71959 0.400021C7.48192 0.149541 7.11958 0 6.7504 0C6.57555 0 6.41014 0.0327349 6.25887 0.0972571L6.22816 0.110281L3.78192 1.45401L3.75303 1.47405C3.28649 1.7982 3.10825 2.43359 3.33839 2.95194C3.34042 2.95659 3.54198 3.42179 3.54198 3.84214C3.54198 5.12776 2.49606 6.17368 1.21043 6.17368H1.12988C1.12428 6.17358 1.1187 6.17349 1.11315 6.17349C0.669048 6.17349 0.310183 6.55356 0.1989 7.14187C0.190778 7.185 0 8.20766 0 9.00751C0 9.80734 0.190778 10.8299 0.198928 10.8732C0.310291 11.4614 0.669373 11.8415 1.11377 11.8415C1.1194 11.8415 1.12523 11.8414 1.12858 11.8413H1.21043C2.49606 11.8413 3.54198 12.8872 3.54198 14.1728C3.54198 14.5905 3.34077 15.0577 3.33899 15.0618C3.10879 15.5799 3.28551 16.2159 3.7503 16.5412L3.77789 16.5604L6.09573 17.8566L6.12519 17.8696C6.27904 17.9372 6.44702 17.9714 6.62444 17.9714C6.99509 17.9714 7.35715 17.8183 7.59295 17.5619C7.92214 17.2042 8.8153 16.4655 9.47495 16.4655C10.1892 16.4655 11.1051 17.2936 11.3695 17.5834C11.6058 17.8442 11.9703 17.9999 12.3447 18C12.5187 18 12.6837 17.9669 12.8352 17.9016L12.8653 17.8886L15.2679 16.5607L15.2963 16.5408C15.7621 16.2163 15.9398 15.5809 15.7101 15.0637C15.7081 15.059 15.5063 14.5876 15.5063 14.1728C15.5063 12.8872 16.5522 11.8413 17.8378 11.8413L17.9172 11.8413C17.9225 11.8414 17.9278 11.8414 17.933 11.8414C18.3784 11.8414 18.738 11.4613 18.8491 10.8735C18.8511 10.8631 19.0482 9.82732 19.0482 9.00746C19.0482 8.20395 18.8574 7.18484 18.8493 7.14181ZM6.63655 16.6255L4.60899 15.4917C4.69834 15.2622 4.8804 14.7266 4.8804 14.1728C4.8804 12.2498 3.4005 10.6599 1.49454 10.5136C1.448 10.2424 1.33853 9.54728 1.33853 9.00754C1.33853 8.46857 1.44794 7.77279 1.49446 7.50136C3.4005 7.35523 4.8804 5.76532 4.8804 3.84217C4.8804 3.28984 4.69931 2.75572 4.61015 2.52617L6.7677 1.34116C6.76765 1.34116 6.76776 1.34116 6.7677 1.34116C6.84547 1.4206 7.15676 1.72937 7.58638 2.03552C8.28838 2.53591 8.95686 2.78964 9.57327 2.78964C10.1836 2.78964 10.8468 2.54084 11.5443 2.05011C11.9713 1.74984 12.2809 1.44705 12.3585 1.36894C12.3584 1.36896 12.3587 1.36891 12.3585 1.36894L14.4388 2.52435C14.3495 2.75387 14.1678 3.28911 14.1678 3.8422C14.1678 5.76535 15.6476 7.35525 17.5537 7.50138C17.6002 7.77323 17.7097 8.47022 17.7097 9.00757C17.7097 9.54709 17.6003 10.2425 17.5537 10.5138C15.6477 10.6599 14.1678 12.2498 14.1678 14.173C14.1678 14.7259 14.3492 15.2604 14.4384 15.4898L12.3325 16.6537C12.2417 16.5571 11.9351 16.2429 11.5108 15.9278C10.7952 15.3964 10.1103 15.127 9.47493 15.127C8.84568 15.127 8.16588 15.3914 7.45441 15.9128C7.03622 16.2193 6.7276 16.5305 6.63655 16.6255ZM12.8564 8.99519C12.8564 7.13507 11.343 5.62177 9.48283 5.62177C7.62271 5.62177 6.10941 7.13507 6.10941 8.99519C6.10941 10.8553 7.62271 12.3686 9.48283 12.3686C11.343 12.3686 12.8564 10.8553 12.8564 8.99519ZM9.48283 6.96032C10.6049 6.96032 11.5178 7.87316 11.5178 8.99519C11.5178 10.1173 10.6049 11.0302 9.48283 11.0302C8.3608 11.0302 7.44796 10.1173 7.44796 8.99519C7.44796 7.87314 8.3608 6.96032 9.48283 6.96032Z" fill="#339EEB"/>
</svg>
